<?xml version="1.0" encoding="UTF-8"?> <svg xmlns="http://www.w3.org/2000/svg" width="270" height="226" viewBox="0 0 270 226" fill="none"><path opacity="0.58" d="M1.26485e-06 210.532L1.96698e-05 0.00397235C14.4308 -0.137147 28.9113 3.50376 38.0674 9.82597C58.37 23.8816 50.3087 46.9971 72.95 59.8391C86.1865 67.3467 106.39 69.1248 125.1 69.3224C143.81 69.4917 163.117 68.5321 180.832 72.0602C214.222 78.7211 232.833 102.853 218.8 121.283C212.281 129.835 200.389 136.637 191.382 144.399C182.375 152.188 176.205 162.18 182.823 170.703C196.258 188.005 246.915 184.505 264.73 200.48C272.741 207.649 271.05 217.047 263.486 224.499L14.5 225L1.26485e-06 210.532Z" fill="url(#paint0_radial_1776_2239)"></path><path opacity="0.6" d="M3.05544e-05 225.579L3.06452e-05 50C28.9339 63.6081 52.2862 84.628 65.139 109.223C71.143 120.71 77.1168 134.652 92.2928 138.06C104.784 140.848 117.365 134.866 129.101 130.505C140.868 126.144 156.949 123.927 165.125 131.887C179.638 146.043 149.376 169.685 163.737 183.936C172.789 192.921 191.253 189.227 204.438 194.017C218.739 199.237 223.416 214.441 217.502 226L3.05544e-05 225.579Z" fill="url(#paint1_radial_1776_2239)"></path><defs><radialGradient id="paint0_radial_1776_2239" cx="0" cy="0" r="1" gradientUnits="userSpaceOnUse" gradientTransform="translate(51.2778 194.892) rotate(-180) scale(449.445 254.921)"><stop offset="0.630208" stop-color="#B8FFD5"></stop><stop offset="1" stop-color="white"></stop></radialGradient><radialGradient id="paint1_radial_1776_2239" cx="0" cy="0" r="1" gradientUnits="userSpaceOnUse" gradientTransform="translate(17.8152 208.603) rotate(-180) scale(257.059 203.052)"><stop stop-color="#55FF9A"></stop><stop offset="0.0001" stop-color="#33995C"></stop><stop offset="0.869792" stop-color="#55FF9A"></stop></radialGradient></defs></svg> 