<?xml version="1.0" encoding="UTF-8"?> <svg xmlns="http://www.w3.org/2000/svg" width="399" height="308" viewBox="0 0 399 308" fill="none"><path opacity="0.58" d="M398.501 19.1624V307.416C377.203 307.609 355.83 302.624 342.317 293.968C312.351 274.723 324.249 243.073 290.832 225.49C271.296 215.211 241.478 212.776 213.863 212.505C186.248 212.274 157.751 213.588 131.605 208.757C82.3243 199.637 54.8562 166.596 75.5674 141.361C85.1886 129.652 102.742 120.339 116.035 109.712C129.329 99.0458 138.436 85.3657 128.668 73.6951C108.838 50.0062 34.0715 54.798 7.77845 32.9254C-4.04606 23.1097 -1.54896 10.2412 9.61455 0.0390625H391.001L398.501 19.1624Z" fill="url(#paint0_radial_1776_2236)"></path><path opacity="0.6" d="M398.499 0V241.34C355.859 222.68 321.444 193.856 302.503 160.131C293.654 144.379 284.851 125.261 262.485 120.588C244.078 116.765 225.536 124.967 208.24 130.948C190.9 136.928 167.201 139.967 155.151 129.052C133.764 109.64 178.361 77.2222 157.196 57.6797C143.857 45.3595 116.646 50.4248 97.2152 43.8562C76.1396 36.6993 69.2478 15.8497 77.9626 0H398.499Z" fill="url(#paint1_radial_1776_2236)"></path><defs><radialGradient id="paint0_radial_1776_2236" cx="0" cy="0" r="1" gradientUnits="userSpaceOnUse" gradientTransform="translate(322.819 40.5771) scale(663.35 349.037)"><stop offset="0.630208" stop-color="#B8FFD5"></stop><stop offset="1" stop-color="white"></stop></radialGradient><radialGradient id="paint1_radial_1776_2236" cx="0" cy="0" r="1" gradientUnits="userSpaceOnUse" gradientTransform="translate(372.244 23.8562) scale(378.832 278.434)"><stop stop-color="#55FF9A"></stop><stop offset="0.0001" stop-color="#33995C"></stop><stop offset="0.869792" stop-color="#55FF9A"></stop></radialGradient></defs></svg> 